<?xml version="1.0" standalone="yes"?>
<svg xmlns="http://www.w3.org/2000/svg" width="675" height="1200">
<path style="fill:#b9cbe2; stroke:none;" d="M0 0L0 48C14.0009 44.3335 21.9063 28.8052 36 26C40.2987 17.3933 54.4606 17.5402 56 8C60.8507 7.31116 66.1655 4.69055 68 0L0 0z"/>
<path style="fill:#afc6de; stroke:none;" d="M56 8C53.1694 17.6439 38.9389 16.2588 36 26C28.1633 26.8677 22.5569 32.8784 16.8958 37.7061C12.2708 41.6503 5.61396 45.661 0 48L0 289C4.12821 290.129 7.2559 293.025 11.0748 294.924C21.3922 300.057 31.8989 305.645 43 308.795C59.367 313.438 75.1806 314.159 91.9606 316.129C116.644 319.027 140.827 322.99 166 323C176.99 323.004 187.958 324 199 324C203.48 324 209.528 325.031 213.74 323.276C219.015 321.079 219.484 315.535 221.894 311.188C224.28 306.886 230.745 300.355 234.55 297.17C240.505 292.185 247.537 288.496 253.745 283.889C267.646 273.572 282.302 263.305 297.3 254.508C300.257 252.774 303.622 251.989 306.572 250.275C315.231 245.245 321.631 236.639 332 235L332 232C339.292 231.008 344.767 224.948 352 224C354.233 219.732 357.536 219.447 361.486 217.255C368.431 213.401 376.149 209.751 384 208C387.172 201.936 395.077 200.604 401 198.151C406.116 196.032 410.503 193.226 416 192L416 187C420.327 187.758 430.688 184.485 432 180L436 181C440.589 175.557 450.59 171.707 453 165L464 163C467.771 156.301 475.862 152.89 481.625 148.291C492.717 139.439 502.134 126.521 515 120C515.994 113.484 521.678 109.817 525.911 105.246C531.649 99.0481 536.709 92.7122 542.201 86.3102C545.874 82.0277 550.445 77.4949 552 72L556 72C559.018 63.0927 567.701 55.3177 573.487 48.0146C579.366 40.5936 583.761 31.673 590.08 24.7207C596.799 17.329 605.379 10.0913 608 0L255 0L128 0L89 0C83.1949 0 75.8302 -1.21179 70.2091 0.313232C65.1226 1.69324 61.4021 6.65881 56 8z"/>
<path style="fill:#c5d5e7; stroke:none;" d="M608 0C605.281 6.62048 599.447 11.8071 596.727 18.2593C593.829 25.1316 593.532 34.4822 591.56 41.8302C587.38 57.4056 581.041 73.6394 572.907 87.5363C548.997 128.383 515.603 163.087 477.522 190.776C464.966 199.905 450.39 206.876 437.09 214.583C430.208 218.571 424.312 223.766 417.728 228.045C409.587 233.335 401.156 238.224 393.039 243.586C388.503 246.583 384.902 250.419 380.689 253.769C367.794 264.023 354.316 274.05 341.015 283.728C335.452 287.774 331.52 293.264 325 296C323.217 302.231 316.594 304.926 312.004 309.079C308.728 312.043 305.751 315.268 301.561 316.945C295.605 319.329 287.39 319.449 281 320.282C264.029 322.494 246.992 321.71 230 323.714C225.87 324.202 221.037 323.169 217.09 324.585C209.183 327.421 203.708 339.747 198.636 345.96C189.149 357.578 175.775 368.699 163 376.509C129.399 397.05 90.8448 408.306 51.9606 412.871C34.6064 414.909 17.3705 413 0 413L0 581C30.2591 577.313 59.0923 563.149 85.0856 548.319C91.7235 544.531 98.1501 540.441 104.385 535.989C107.567 533.718 110.755 531.784 112 528C118.77 527.018 125.609 520.032 130.711 515.664C144.229 504.092 155.813 490.939 167.667 477.759C180.58 463.401 190.572 447.202 201.403 431.289C211.51 416.439 223.34 402.893 234.251 388.69C246.001 373.394 256.653 358.555 270.827 345.286C279.543 337.126 288.993 326.765 299.325 320.658C305.525 316.993 314.09 316.919 321 315.74C326.089 314.872 330.876 312.546 336 311.616C345.89 309.821 356.077 309.461 365.83 306.826C378.169 303.494 390.619 300.743 403 297.534C425.43 291.721 447.744 284.963 471 283.093C487.451 281.771 504.493 283 521 283C572.407 283 623.767 286.057 675 285L675 0L608 0z"/>
<path style="fill:#b9cbe2; stroke:none;" d="M595 19C584.637 29.2781 577.293 42.3966 568.039 53.7407C563.806 58.9302 557.346 65.3777 556 72L552 72C546.389 84.0875 534.877 94.7848 525.911 104.445C521.494 109.203 515.524 113.095 515 120C511.271 121.182 508.811 124.138 505.753 126.509C497.053 133.253 489.497 141.695 480.805 148.291C475.435 152.366 466.325 156.243 464 163C460.195 163.195 456.729 164.369 453 165C449.113 171.563 439.809 174.3 436 181L432 180C429.32 184.382 421.014 186.811 416 187L416 192C407.739 193.093 399.177 197.864 391.715 201.436C388.047 203.192 385.28 203.934 384 208C375.802 209.084 367.835 213.46 360.675 217.255C356.767 219.326 353.452 219.39 352 224C344.678 224.493 339.062 230.341 332 232L332 235C321.07 235.991 314.7 245.177 305.714 250.275C287.456 260.635 270.021 271.744 252.886 283.889C246.659 288.302 239.523 292.032 233.839 297.17C230.251 300.413 224.327 306.228 221.894 310.339C219.115 315.036 218.761 320.978 212.871 323.276C209.05 324.767 204.026 324 200 324C189.953 324 179.987 323.123 170 323.004C143.759 322.692 118.66 319.232 92.9105 316.129C83.0632 314.942 72.8109 315.467 63 313.737C54.8706 312.304 45.9518 309.463 38.0147 306.985C28.8774 304.134 19.5876 298.862 11.0748 294.465C7.2633 292.496 4.31185 289.671 0 289L0 413C17.6742 413 35.2488 415 52.9105 412.871C91.7441 408.191 130.42 397.168 163.965 376.509C176.349 368.882 189.251 358.026 198.636 346.907C204.188 340.328 209.453 327.574 218.039 324.585C224.539 322.322 234.087 323.395 241 322.911C250.612 322.237 260.423 322.742 270 321.83C278.401 321.03 286.653 319.125 294.999 318.173C304.54 317.085 308.7 312.457 315.961 306.519C319.965 303.244 324.14 301.436 325 296C332.173 294.116 336.236 287.875 342.004 283.728C358.824 271.632 374.271 257.414 391.174 245.479C400 239.247 409.563 233.956 418.576 228.045C425.171 223.719 431.08 218.516 438.039 214.583C451.338 207.067 465.913 199.998 478.255 190.776C492.491 180.139 507.203 169.047 520.035 156.696C526.668 150.312 531.713 142.598 537.796 135.731C546.754 125.619 555.844 115.852 562.612 104C567.892 94.7548 574.348 86.3531 579.295 76.9105C580.932 73.7856 581.169 70.2423 582.514 67C586.261 57.9667 590.069 49.5663 592.155 39.9607C593.565 33.4667 597.722 25.5021 595 19z"/>
<path style="fill:#d1ddeb; stroke:none;" d="M624 420C628.215 421.769 633.464 421 638 421L664 421C659.785 419.231 654.535 420 650 420L624 420z"/>
<path style="fill:#c5d5e7; stroke:none;" d="M89 758C111.635 752.811 132.417 740.748 155.001 735.005C181.21 728.339 206.988 721.098 233 713.439C237.203 712.202 241.673 712.22 245.83 710.895C250.636 709.363 255.161 706.727 260 705.09C272.556 700.843 285.46 697.177 298.015 692.911C308.918 689.206 320.568 688.407 331.09 683.651C336.897 681.026 343.192 679.809 349.015 677.214C360.301 672.185 371.26 666.688 382.17 660.849C388.427 657.501 397.919 653.444 400 646C404.375 645.307 406.68 642.436 410.174 639.925C415.974 635.755 421.963 632.262 428.039 628.537C445.41 617.887 465.257 608.703 485 603.494C520.26 594.191 558.212 588.428 595 590.039C621.84 591.215 648.389 597.637 675 601L675 421C650.777 421 626.099 419.761 602 422.171C553.556 427.014 504.76 439.973 461.834 462.958C441.862 473.652 421.408 484.4 404 499.205C377.678 521.591 357.857 549.921 336.201 576.425C332.806 580.58 328.583 583.973 325.084 588.039C321.641 592.041 319.205 596.783 315.711 600.714C299.243 619.243 280.864 636.497 261.576 652.086C243.487 666.706 222.042 678.343 202.17 690.18C181.259 702.635 161.11 716.207 139.961 728.339C129.004 734.623 118.095 740.941 107 746.964C101.378 750.017 93.2698 753.374 89 758z"/>
<path style="fill:#b9cbe2; stroke:none;" d="M400 646C395.881 655.055 383.52 660.054 374.986 663.936C355.057 673.001 335.826 684.375 314 688.425C305.543 689.995 297.88 693.287 289.91 696.177C280.214 699.693 269.834 701.787 260 704.748C254.759 706.327 250.055 709.302 244.91 710.895C240.715 712.195 236.231 712.193 232 713.439C225.917 715.23 220.102 717.99 214 719.7C208.1 721.353 201.88 721.839 196 723.62C192.567 724.659 189.483 726.646 186 727.533C174.447 730.477 162.508 732.425 151.09 735.804C138.242 739.606 125.729 744.899 113 749.089C108.718 750.499 105.042 752.913 100.91 754.542C96.4367 756.306 91.5454 756.93 87.0394 758.706C79.9855 761.486 73.08 765.4 66.1736 768.583C59.5586 771.632 55.6106 778.426 48 779L48 782C35.0169 782.863 21.6517 794.583 11.2708 801.727C8.02908 803.958 2.23429 805.371 0.603395 809.189C-0.61516 812.042 0 815.97 0 819L0 840C4.10877 838.28 8.81539 836.781 12.7137 834.705C19.2715 831.214 24.619 826.011 32 824C34.6268 819.236 38.332 820.719 42.9853 819.526C46.5564 818.611 49.2711 816.488 53 816L52 814C58.936 813.938 61.9189 810.367 68.0394 808.39C81.2655 804.116 94.0275 798.542 107.09 793.823C125.362 787.222 144.966 783.432 163.961 779.371C176.818 776.623 188.937 772.473 202 770.286C221.926 766.949 241.904 765.744 262 763.83C301.371 760.081 340.561 755.79 380 753.089C402.321 751.561 424.726 752.351 447 749.714C459.785 748.201 473.686 744.693 485.83 740.33C491.697 738.223 497.087 734.67 503 732.672C525.263 725.151 548.024 720.311 571.089 716.259C579.061 714.859 587.905 715.315 596 714.961C612.298 714.247 628.687 714.616 645 716.17C654.928 717.115 665.161 719.891 675 720L675 601C658.122 597.867 640.973 595.847 624 593.816C614.699 592.703 605.43 590.452 596 590.039C569.712 588.888 543.674 592.211 518 596.671C513.363 597.477 508.658 597.146 504 598.12C489.614 601.127 474.83 606.175 461.015 611.299C445.85 616.924 430.716 625.854 416.999 634.339C411.345 637.836 406.384 644.182 400 646z"/>
<path style="fill:#afc6de; stroke:none;" d="M52 814L53 816C48.8161 816.281 45.951 818.526 41.9961 819.526C37.664 820.622 33.659 819.001 32 824C23.7031 825.29 18.2356 831.965 10.9105 835.13C7.50439 836.601 2.83644 836.891 0.858025 840.554C-1.98383 845.816 0 856.13 0 862L0 915L0 1200L322 1200L372 1200C382.994 1200 392.952 1201.1 402.985 1196.4C409.218 1193.47 421.767 1190.86 424 1184C429.675 1183.29 434.34 1179.88 440 1179L440 1176C452.46 1174.45 462.604 1165.03 472.999 1158.89C478.472 1155.66 484.482 1153.6 489.996 1150.5C492.867 1148.89 495.236 1146.38 498.166 1144.93C501.343 1143.36 504.866 1143.08 507.985 1141.19C511.181 1139.25 513.335 1136.12 516.443 1134.05C521.055 1130.98 526.426 1129.08 531.271 1126.44C536.553 1123.55 541.306 1120.11 547 1118C549.983 1108.33 567.194 1105.1 576 1105L576 1102C586.538 1101.97 599.494 1101.08 609.714 1098.54C618.251 1096.43 626.5 1092.9 635 1090.58C640.92 1088.97 647.097 1088.97 652.911 1087.45C660.385 1085.49 667.466 1081.99 675 1080L675 720C665.483 719.723 655.619 717.086 646 716.17C629.009 714.552 611.983 714.217 595 714.961C586.947 715.313 578.092 714.826 570.17 716.259C547.069 720.437 524.329 725.129 502 732.672C496.108 734.663 490.774 738.284 484.91 740.33C472.65 744.608 458.87 748.191 446 749.714C423.726 752.351 401.321 751.561 379 753.089C313.871 757.55 248.392 763.085 184 773.212C177.318 774.263 170.612 777.544 163.961 779.157C140.014 784.964 116.231 789.983 93.0147 798.303C84.1797 801.47 74.7813 805.111 66.1698 808.712C60.856 810.934 58.1308 813.856 52 814z"/>
<path style="fill:#c5d5e7; stroke:none;" d="M0 808C10.6599 803.243 20.0401 796.325 30.0039 790.32C35.6605 786.911 41.3065 782.875 48 782L48 779C55.09 778.77 57.9906 773.665 64 771C58.9451 769.34 51.7138 773.777 47 775.776C36.4585 780.246 27.2267 787.165 16.9992 792.17C12.2428 794.497 5.50743 795.232 1.6034 799.049C-0.633912 801.237 0.00219939 805.155 0 808z"/>
<path style="fill:#b9cbe2; stroke:none;" d="M576 1102L576 1105C568.597 1105.03 560.679 1106.64 554.385 1110.43C550.664 1112.67 547.782 1113.39 547 1118C540.837 1119.48 535.892 1123.45 530.421 1126.44C525.584 1129.08 520.193 1130.9 515.63 1134.05C512.541 1136.19 510.316 1139.24 507.071 1141.19C503.951 1143.07 500.442 1143.34 497.285 1144.93C494.002 1146.59 491.287 1149.3 488 1151.04C482.395 1154.01 476.434 1156.15 471 1159.48C461.01 1165.6 451.766 1173.49 440 1176L440 1179C434.196 1179.52 429.592 1182.79 424 1184C419.093 1193.07 404.521 1192.09 398 1200L492 1200C506.672 1200 523.568 1202.34 538 1199.74C542.542 1198.92 546.616 1196.07 550.961 1194.56C561.226 1191 571.657 1187.63 582 1184.21C586.943 1182.57 592.038 1182.84 596.911 1181.43C599.465 1180.69 601.574 1178.94 604.039 1177.97C611.908 1174.88 620.102 1172.77 628 1169.76C643.533 1163.86 659.589 1159.27 675 1153L675 1080C666.888 1081.37 659.822 1085.44 651.961 1087.45C646.106 1088.94 639.948 1088.96 634 1090.58C625.545 1092.89 617.328 1096.49 608.83 1098.54C598.858 1100.95 586.272 1101.91 576 1102z"/>
<path style="fill:#c5d5e7; stroke:none;" d="M540 1199C544.215 1200.77 549.465 1200 554 1200L581 1200L675 1200L675 1153C665.482 1155.46 656.33 1160.11 647.001 1163.36C630.234 1169.2 613.525 1175.05 596.911 1181.13C593.144 1182.5 588.892 1181.98 585 1183.02C577.035 1185.13 569.595 1188.88 561.715 1191.29C554.197 1193.58 547.105 1195.38 540 1199z"/>
</svg>
